<svg id="checkmark-circle-solid" width="24" height="24" viewBox="0 0 24 24" fill="currentColor" xmlns="http://www.w3.org/2000/svg">
<circle cx="12" cy="12" r="10" fill="#57A635"/>
<path d="M10 16.55C9.86839 16.5508 9.73793 16.5256 9.61609 16.4758C9.49426 16.426 9.38344 16.3527 9.29 16.26L6.34 13.26C6.15302 13.0717 6.04851 12.8169 6.04944 12.5515C6.05038 12.2861 6.1567 12.032 6.345 11.845C6.5333 11.6581 6.78817 11.5535 7.05354 11.5545C7.3189 11.5554 7.57302 11.6617 7.76 11.85L10 14.07L15.24 7.87003C15.4111 7.66714 15.6557 7.54052 15.9201 7.51801C16.1846 7.49551 16.4471 7.57897 16.65 7.75003C16.8529 7.9211 16.9795 8.16575 17.002 8.43018C17.0245 8.6946 16.9411 8.95714 16.77 9.16003L10.82 16.16C10.7294 16.266 10.6177 16.3519 10.492 16.4122C10.3663 16.4725 10.2294 16.5058 10.09 16.51L10 16.55Z" fill="white"/>
</svg>
