<svg id="megamenu-icon-getcare" width="48" height="48" viewBox="0 0 48 48" fill="currentColor" xmlns="http://www.w3.org/2000/svg">
<path d="M31.1952 20.4048C31.393 20.1448 31.5001 19.827 31.5 19.5003C31.4987 19.1734 31.4032 18.8538 31.225 18.5798C31.0467 18.3058 30.7933 18.089 30.495 17.9553C30.4875 17.9553 30.4837 17.9515 30.48 17.9478C30.4762 17.944 30.4725 17.9403 30.465 17.9403C28.425 17.2653 27.585 14.8953 27.24 13.1553C26.2289 13.9413 25.0311 14.4513 23.7637 14.6354C22.4963 14.8194 21.2029 14.6712 20.01 14.2053C19.9314 14.174 19.8462 14.1632 19.7623 14.1737C19.6784 14.1841 19.5985 14.2157 19.53 14.2653C18.6866 15.1616 18.1462 16.3002 17.985 17.5203H17.97C17.9503 17.6481 17.8969 17.7684 17.8151 17.8686C17.7334 17.9688 17.6263 18.0453 17.505 18.0903C17.2136 18.1947 16.9611 18.3857 16.7815 18.6377C16.6018 18.8898 16.5036 19.1908 16.5 19.5003C16.4999 19.827 16.607 20.1448 16.8048 20.4049C17.0026 20.6649 17.2801 20.853 17.595 20.9403C17.729 20.9759 17.8505 21.0481 17.9458 21.1487C18.0412 21.2494 18.1067 21.3745 18.1351 21.5103C18.423 22.852 19.1623 24.0544 20.2297 24.917C21.297 25.7796 22.6278 26.2501 24 26.2501C25.3723 26.2501 26.7031 25.7796 27.7704 24.917C28.8378 24.0544 29.577 22.852 29.865 21.5103C29.8934 21.3746 29.9589 21.2494 30.0542 21.1487C30.1496 21.0481 30.271 20.9759 30.405 20.9403C30.7199 20.853 30.9975 20.6649 31.1952 20.4048Z" fill="white"/>
<path d="M32.25 29.2503H31.59C32.0438 29.9144 32.3599 30.6628 32.5196 31.4511C32.6793 32.2395 32.6795 33.0519 32.52 33.8403C33.0864 34.0951 33.5603 34.5186 33.8771 35.0528C34.1939 35.5871 34.3381 36.206 34.29 36.8253L34.2 37.8753C34.3079 37.9852 34.3905 38.1173 34.4423 38.2623C34.4941 38.4073 34.5138 38.5619 34.5 38.7153C34.4764 38.9688 34.3668 39.2067 34.1895 39.3895C34.0122 39.5722 33.7777 39.689 33.525 39.7203C33.4713 39.7362 33.4159 39.7463 33.36 39.7503H33.285C32.9884 39.7219 32.7145 39.5792 32.5214 39.3525C32.3282 39.1257 32.2308 38.8326 32.25 38.5353C32.2656 38.3788 32.3137 38.2272 32.3912 38.0904C32.4687 37.9535 32.5739 37.8342 32.7 37.7403L32.79 36.6903C32.8069 36.4942 32.7851 36.2968 32.7256 36.1092C32.6661 35.9217 32.5703 35.7477 32.4435 35.5972C32.3167 35.4467 32.1615 35.3227 31.9867 35.2323C31.8119 35.1419 31.6211 35.0868 31.425 35.0703C31.0287 35.045 30.638 35.1748 30.3357 35.4324C30.0333 35.6899 29.843 36.0549 29.805 36.4503L29.715 37.4853C29.8687 37.6416 29.9726 37.8398 30.0139 38.0551C30.0551 38.2703 30.0318 38.493 29.9468 38.695C29.8619 38.897 29.719 39.0694 29.5363 39.1904C29.3536 39.3115 29.1392 39.3758 28.92 39.3753H28.8C28.7007 39.3613 28.6044 39.3308 28.515 39.2853C28.2865 39.2037 28.0909 39.0496 27.9582 38.8465C27.8254 38.6433 27.7629 38.4023 27.78 38.1603C27.7929 38.0068 27.8384 37.8579 27.9134 37.7234C27.9885 37.5889 28.0913 37.4719 28.215 37.3803L28.305 36.3303C28.3609 35.6209 28.668 34.9547 29.1712 34.4515C29.6744 33.9483 30.3406 33.6412 31.05 33.5853C31.2079 32.8062 31.1654 31.9999 30.9267 31.2417C30.688 30.4835 30.2607 29.7983 29.685 29.2503H29.67L24.645 37.8753C24.5802 37.9892 24.4863 38.0839 24.3731 38.1497C24.2598 38.2156 24.1311 38.2503 24 38.2503C23.8689 38.2503 23.7402 38.2156 23.6269 38.1497C23.5137 38.0839 23.4198 37.9892 23.355 37.8753L18.63 29.7753C17.9839 30.525 17.5578 31.4389 17.3989 32.4158C17.2401 33.3927 17.3547 34.3945 17.73 35.3103C18.2494 35.4247 18.7118 35.7188 19.0358 36.1407C19.3597 36.5626 19.5243 37.0853 19.5007 37.6167C19.477 38.1481 19.2667 38.6541 18.9066 39.0456C18.5465 39.4371 18.0598 39.689 17.5323 39.7569C17.0047 39.8248 16.4701 39.7043 16.0227 39.4168C15.5752 39.1292 15.2435 38.693 15.0861 38.1849C14.9287 37.6768 14.9556 37.1295 15.1621 36.6393C15.3686 36.1491 15.7415 35.7475 16.215 35.5053C15.8639 34.4626 15.7665 33.3513 15.9309 32.2635C16.0952 31.1756 16.5166 30.1427 17.16 29.2503H15.75C13.6149 29.2552 11.5643 30.0852 10.0268 31.5667C8.48931 33.0483 7.58398 35.0668 7.5 37.2003L11.565 41.2503H36.435L40.5 37.2003C40.416 35.0668 39.5107 33.0483 37.9732 31.5667C36.4357 30.0852 34.3851 29.2552 32.25 29.2503Z" fill="white"/>
<path d="M21.075 31.0053C22.964 31.6601 25.0176 31.6654 26.91 31.0203L24 36.0153L21.075 31.0053Z" fill="white"/>
<path d="M17.985 37.5003C17.985 37.9145 17.6492 38.2503 17.235 38.2503C16.8208 38.2503 16.485 37.9145 16.485 37.5003C16.485 37.0861 16.8208 36.7503 17.235 36.7503C17.6492 36.7503 17.985 37.0861 17.985 37.5003Z" fill="white"/>
<path d="M31.8596 17.055C31.608 16.8345 31.3183 16.6617 31.0046 16.545H30.9746V16.53C29.0696 15.945 28.5446 12.51 28.4996 11.22C28.4936 11.0526 28.4317 10.892 28.3239 10.7639C28.216 10.6357 28.0684 10.5474 27.9044 10.5129C27.7405 10.4784 27.5698 10.4997 27.4194 10.5735C27.269 10.6473 27.1477 10.7692 27.0746 10.92C25.6946 13.68 22.1696 13.35 20.4896 12.795C20.2076 12.6946 19.9069 12.6573 19.6088 12.6858C19.3107 12.7143 19.0226 12.8079 18.7646 12.96C17.6028 13.9819 16.8337 15.377 16.5896 16.905C16.4369 16.9701 16.2912 17.0506 16.1546 17.145C15.8246 15.24 15.5546 11.775 17.3246 9.405C18.6296 7.635 20.8796 6.75 23.9996 6.75C27.1196 6.75 29.3696 7.635 30.6746 9.405C32.4146 11.73 32.1746 15.135 31.8596 17.055Z" fill="#92CCF0"/>
<path fill-rule="evenodd" clip-rule="evenodd" d="M15.0001 19.5C15.0116 19.3431 15.0367 19.1875 15.0751 19.035C15.0568 19.0121 15.0417 18.9869 15.0301 18.96C14.9551 18.705 13.1401 12.525 16.1251 8.505C17.7301 6.345 20.3701 5.25 24.0001 5.25C27.6301 5.25 30.2701 6.345 31.8751 8.505C34.8601 12.525 33.0451 18.705 32.9701 18.96C32.9588 18.9826 32.9436 19.0029 32.9251 19.02C32.9646 19.1774 32.9897 19.338 33.0001 19.5C32.9986 20.077 32.8308 20.6414 32.5169 21.1255C32.203 21.6097 31.7562 21.9932 31.2301 22.23C30.797 23.8156 29.8546 25.2148 28.5482 26.2122C27.2418 27.2096 25.6437 27.7499 24.0001 27.7499C22.3564 27.7499 20.7583 27.2096 19.4519 26.2122C18.1455 25.2148 17.2032 23.8156 16.7701 22.23C16.2439 21.9932 15.7971 21.6097 15.4832 21.1255C15.1693 20.6414 15.0016 20.077 15.0001 19.5ZM30.0543 21.1485C30.1496 21.0478 30.2711 20.9756 30.4051 20.94C30.7199 20.8527 30.9975 20.6647 31.1953 20.4046C31.3931 20.1445 31.5001 19.8267 31.5001 19.5C31.4988 19.1731 31.4033 18.8535 31.225 18.5795C31.0468 18.3055 30.7934 18.0887 30.4951 17.955C30.4876 17.955 30.4838 17.9513 30.4801 17.9475C30.4763 17.9438 30.4726 17.94 30.4651 17.94C28.4251 17.2651 27.5851 14.895 27.2401 13.155C26.229 13.941 25.0311 14.4511 23.7638 14.6351C22.4964 14.8192 21.203 14.671 20.0101 14.205C19.9315 14.1738 19.8463 14.1629 19.7624 14.1734C19.6785 14.1839 19.5985 14.2154 19.5301 14.265C18.6867 15.1613 18.1463 16.2999 17.9851 17.52H17.9701C17.9504 17.6478 17.8969 17.7681 17.8152 17.8683C17.7334 17.9685 17.6264 18.0451 17.5051 18.09C17.2137 18.1944 16.9612 18.3854 16.7815 18.6375C16.6019 18.8895 16.5037 19.1905 16.5001 19.5C16.5 19.8267 16.6071 20.1445 16.8048 20.4046C17.0026 20.6647 17.2802 20.8527 17.5951 20.94C17.7291 20.9756 17.8505 21.0478 17.9459 21.1485C18.0413 21.2491 18.1068 21.3743 18.1352 21.51C18.4231 22.8517 19.1624 24.0542 20.2297 24.9167C21.297 25.7793 22.6278 26.2498 24.0001 26.2498C25.3724 26.2498 26.7032 25.7793 27.7705 24.9167C28.8378 24.0542 29.5771 22.8517 29.8651 21.51C29.8934 21.3743 29.9589 21.2491 30.0543 21.1485ZM24.0001 6.75C20.8801 6.75 18.6301 7.635 17.3251 9.405C15.5551 11.775 15.8251 15.24 16.1551 17.145C16.2916 17.0506 16.4374 16.9701 16.5901 16.905C16.8341 15.377 17.6032 13.9819 18.7651 12.96C19.023 12.8079 19.3112 12.7143 19.6092 12.6858C19.9073 12.6573 20.208 12.6946 20.4901 12.795C22.1701 13.35 25.6951 13.68 27.0751 10.92C27.1481 10.7692 27.2694 10.6473 27.4198 10.5735C27.5702 10.4997 27.7409 10.4784 27.9049 10.5129C28.0688 10.5474 28.2164 10.6357 28.3243 10.7639C28.4322 10.892 28.494 11.0526 28.5001 11.22C28.5451 12.51 29.0701 15.945 30.9751 16.53V16.545H31.0051C31.3187 16.6617 31.6084 16.8345 31.8601 17.055C32.1751 15.135 32.4151 11.73 30.6751 9.405C29.3701 7.635 27.1201 6.75 24.0001 6.75Z" fill="#003B71"/>
<path fill-rule="evenodd" clip-rule="evenodd" d="M29.2501 27.75H32.2501C34.8344 27.755 37.3114 28.7838 39.1388 30.6112C40.9662 32.4386 41.9951 34.9157 42.0001 37.5C42.0014 37.5984 41.982 37.6959 41.9433 37.7864C41.9045 37.8768 41.8472 37.9581 41.7751 38.025L37.2751 42.525C37.2082 42.5971 37.1269 42.6544 37.0364 42.6932C36.946 42.732 36.8484 42.7513 36.7501 42.75H11.2501C11.1517 42.7513 11.0541 42.732 10.9637 42.6932C10.8733 42.6544 10.792 42.5971 10.7251 42.525L6.22506 38.025C6.15292 37.9581 6.09562 37.8768 6.05687 37.7864C6.01811 37.6959 5.99876 37.5984 6.00006 37.5C6.00507 34.9157 7.03391 32.4386 8.8613 30.6112C10.6887 28.7838 13.1657 27.755 15.7501 27.75H18.7501C18.873 27.7546 18.9934 27.7866 19.1024 27.8437C19.2114 27.9008 19.3063 27.9815 19.3801 28.08C19.9376 28.7496 20.6492 29.2741 21.4538 29.6085C22.2584 29.9428 23.2501 30 24.0001 30C24.8555 30 25.7455 29.941 26.5523 29.6068C27.3592 29.2726 28.0736 28.7489 28.6351 28.08C28.7058 27.982 28.798 27.9013 28.9045 27.8441C29.0111 27.787 29.1292 27.7548 29.2501 27.75ZM26.9101 31.02C25.9752 31.3475 24.9906 31.5099 24.0001 31.5C23.0037 31.5068 22.0138 31.3392 21.0751 31.005L24.0001 36.015L26.9101 31.02ZM11.5651 41.25H36.4351L40.5001 37.2C40.4161 35.0665 39.5107 33.048 37.9733 31.5665C36.4358 30.0849 34.3852 29.2549 32.2501 29.25H31.5901C32.0438 29.9142 32.3599 30.6625 32.5197 31.4509C32.6794 32.2392 32.6795 33.0516 32.5201 33.84C33.0865 34.0949 33.5604 34.5183 33.8772 35.0525C34.194 35.5868 34.3382 36.2058 34.2901 36.825L34.2001 37.875C34.3079 37.9849 34.3906 38.117 34.4424 38.262C34.4942 38.4071 34.5139 38.5616 34.5001 38.715C34.4764 38.9686 34.3669 39.2064 34.1895 39.3892C34.0122 39.572 33.7778 39.6887 33.5251 39.72C33.4713 39.736 33.416 39.746 33.3601 39.75H33.2851C32.9885 39.7217 32.7146 39.579 32.5214 39.3522C32.3282 39.1254 32.2309 38.8323 32.2501 38.535C32.2657 38.3785 32.3138 38.227 32.3913 38.0901C32.4688 37.9532 32.5739 37.834 32.7001 37.74L32.7901 36.69C32.807 36.494 32.7851 36.2965 32.7257 36.1089C32.6662 35.9214 32.5703 35.7474 32.4435 35.5969C32.3168 35.4464 32.1615 35.3224 31.9868 35.232C31.812 35.1416 31.6211 35.0866 31.4251 35.07C31.0287 35.0447 30.6381 35.1745 30.3357 35.4321C30.0334 35.6896 29.8431 36.0547 29.8051 36.45L29.7151 37.485C29.8687 37.6413 29.9727 37.8395 30.014 38.0548C30.0552 38.2701 30.0319 38.4927 29.9469 38.6947C29.8619 38.8968 29.7191 39.0691 29.5364 39.1902C29.3537 39.3112 29.1392 39.3755 28.9201 39.375H28.8001C28.7007 39.361 28.6044 39.3306 28.5151 39.285C28.2865 39.2035 28.0909 39.0493 27.9582 38.8462C27.8255 38.6431 27.7629 38.4021 27.7801 38.16C27.793 38.0065 27.8385 37.8576 27.9135 37.7231C27.9885 37.5886 28.0913 37.4717 28.2151 37.38L28.3051 36.33C28.361 35.6206 28.6681 34.9544 29.1713 34.4512C29.6745 33.948 30.3407 33.6409 31.0501 33.585C31.2079 32.806 31.1655 31.9996 30.9268 31.2414C30.688 30.4832 30.2608 29.7981 29.6851 29.25H29.6701L24.6451 37.875C24.5802 37.9889 24.4864 38.0836 24.3731 38.1495C24.2598 38.2153 24.1311 38.25 24.0001 38.25C23.869 38.25 23.7403 38.2153 23.627 38.1495C23.5137 38.0836 23.4199 37.9889 23.3551 37.875L18.6301 29.775C17.9839 30.5247 17.5578 31.4386 17.399 32.4155C17.2402 33.3924 17.3547 34.3942 17.7301 35.31C18.2451 35.4249 18.7032 35.7176 19.0237 36.1368C19.3443 36.556 19.5068 37.0748 19.4827 37.6019C19.4586 38.1291 19.2494 38.6309 18.8919 39.019C18.5345 39.4072 18.0516 39.6569 17.5282 39.7243C17.0048 39.7917 16.4744 39.6724 16.0303 39.3874C15.5862 39.1024 15.2567 38.6699 15.0999 38.166C14.9431 37.6622 14.969 37.1192 15.1729 36.6325C15.3769 36.1458 15.7459 35.7465 16.2151 35.505C15.864 34.4623 15.7666 33.351 15.9309 32.2632C16.0953 31.1754 16.5166 30.1424 17.1601 29.25H15.7501C13.6149 29.2549 11.5643 30.0849 10.0268 31.5665C8.48937 33.048 7.58404 35.0665 7.50006 37.2L11.5651 41.25ZM17.7619 36.9731C17.622 36.8331 17.433 36.7531 17.2351 36.75C17.0363 36.7506 16.8459 36.8298 16.7054 36.9703C16.5648 37.1108 16.4856 37.3013 16.4851 37.5C16.4841 37.5988 16.5028 37.6967 16.5402 37.7882C16.5775 37.8796 16.6327 37.9626 16.7026 38.0325C16.7724 38.1023 16.8555 38.1575 16.9469 38.1949C17.0383 38.2322 17.1363 38.251 17.2351 38.25C17.4338 38.2494 17.6242 38.1702 17.7648 38.0297C17.9053 37.8892 17.9845 37.6987 17.9851 37.5C17.9819 37.3021 17.9019 37.1131 17.7619 36.9731Z" fill="#003B71"/>
</svg>

