<svg width="153" height="152" viewBox="0 0 153 152" fill="none" xmlns="http://www.w3.org/2000/svg">
<g id="Play Button">
<path id="Fill" fill-rule="evenodd" clip-rule="evenodd" d="M152.395 76.1045C152.395 117.831 118.457 151.657 76.5921 151.657C34.7275 151.657 0.789551 117.831 0.789551 76.1045C0.789551 34.3781 34.7275 0.552246 76.5921 0.552246C118.457 0.552246 152.395 34.3781 152.395 76.1045ZM65.0598 103.964L100.464 78.0801C101.799 77.1042 101.799 75.1048 100.464 74.1289L65.0598 48.2448C63.4517 47.0691 61.1947 48.2227 61.1947 50.2204V101.989C61.1947 103.986 63.4517 105.14 65.0598 103.964Z" fill="black" fill-opacity="0.4"/>
<g id="Signifier">
<path d="M100.464 74.1289C101.799 75.1048 101.799 77.1042 100.464 78.0801L65.0599 103.964C63.4518 105.14 61.1948 103.986 61.1948 101.989V50.2204C61.1948 48.2227 63.4518 47.0691 65.0599 48.2448L100.464 74.1289Z" fill="white"/>
</g>
</g>
</svg>
