<svg id="megamenu-icon-benefits" width="48" height="48" viewBox="0 0 48 48" fill="currentColor" xmlns="http://www.w3.org/2000/svg">
<path d="M38.3355 18.75C38.8455 18.75 39.3555 18.615 39.8355 18.345C41.2605 17.52 41.7555 15.69 40.9305 14.25C40.3755 13.29 39.3705 12.75 38.3205 12.75C37.8255 12.75 37.3005 12.885 36.8355 13.155C35.3955 13.98 34.9005 15.81 35.7255 17.25C36.2805 18.21 37.3005 18.75 38.3355 18.75Z" fill="white"/>
<path d="M39.8355 29.655C39.3555 29.385 38.8455 29.25 38.3355 29.25C37.3005 29.25 36.2805 29.79 35.7255 30.75C34.9005 32.19 35.3955 34.02 36.8355 34.845C37.3005 35.115 37.8255 35.25 38.3205 35.25C39.3705 35.25 40.3755 34.71 40.9305 33.75C41.7555 32.31 41.2605 30.48 39.8355 29.655Z" fill="white"/>
<path d="M24.0405 43.5C25.6974 43.5 27.0405 42.1569 27.0405 40.5C27.0405 38.8431 25.6974 37.5 24.0405 37.5C22.3837 37.5 21.0405 38.8431 21.0405 40.5C21.0405 42.1569 22.3837 43.5 24.0405 43.5Z" fill="white"/>
<path d="M9.74551 29.25C9.23551 29.25 8.72551 29.385 8.24551 29.655C6.82051 30.48 6.32551 32.31 7.15051 33.75C7.70551 34.71 8.71051 35.25 9.76051 35.25C10.2555 35.25 10.7805 35.115 11.2455 34.845C12.6855 34.02 13.1805 32.19 12.3555 30.75C11.8005 29.79 10.7805 29.25 9.74551 29.25Z" fill="white"/>
<path d="M11.2455 13.155C10.7805 12.885 10.2555 12.75 9.76051 12.75C8.71051 12.75 7.70551 13.29 7.15051 14.25C6.32551 15.69 6.82051 17.52 8.24551 18.345C8.72551 18.615 9.23551 18.75 9.74551 18.75C10.7805 18.75 11.8005 18.21 12.3555 17.25C13.1805 15.81 12.6855 13.98 11.2455 13.155Z" fill="white"/>
<path d="M24.0405 10.5C25.6974 10.5 27.0405 9.15685 27.0405 7.5C27.0405 5.84315 25.6974 4.5 24.0405 4.5C22.3837 4.5 21.0405 5.84315 21.0405 7.5C21.0405 9.15685 22.3837 10.5 24.0405 10.5Z" fill="white"/>
<path d="M24.04 28.5C26.5253 28.5 28.54 26.4853 28.54 24C28.54 21.5147 26.5253 19.5 24.04 19.5C21.5548 19.5 19.54 21.5147 19.54 24C19.54 26.4853 21.5548 28.5 24.04 28.5Z" fill="#92CCF0"/>
<path d="M40.5097 28.35C39.8212 27.96 39.0429 27.75 38.2645 27.75C36.9174 27.75 35.6751 28.38 34.8369 29.4L29.5232 26.325C29.8226 25.605 29.9872 24.825 29.9872 24C29.9872 23.175 29.8226 22.395 29.5232 21.675L34.8369 18.6C35.6751 19.62 36.9174 20.25 38.2645 20.25C39.0429 20.25 39.8212 20.04 40.5097 19.65C41.5425 19.05 42.2909 18.075 42.5903 16.92C42.9046 15.75 42.755 14.535 42.1413 13.5C41.348 12.105 39.8512 11.25 38.2496 11.25C37.4712 11.25 36.6929 11.46 36.0193 11.85C34.9716 12.45 34.2381 13.425 33.9238 14.58C33.6843 15.495 33.7292 16.44 34.0585 17.31L28.7449 20.385C27.8019 19.14 26.3799 18.285 24.7484 18.075V11.925C26.8739 11.565 28.4904 9.72 28.4904 7.5C28.4904 5.025 26.4697 3 24 3C21.5303 3 19.5096 5.025 19.5096 7.5C19.5096 9.72 21.1261 11.565 23.2516 11.925V18.075C21.6201 18.285 20.1981 19.14 19.2551 20.385L13.9415 17.31C14.2708 16.44 14.3157 15.495 14.0762 14.58C13.7619 13.425 13.0284 12.45 11.9807 11.85C11.3071 11.46 10.5288 11.25 9.75043 11.25C8.14885 11.25 6.65205 12.105 5.85874 13.5C5.24505 14.535 5.09537 15.75 5.4097 16.92C5.70906 18.075 6.45746 19.05 7.49026 19.65C8.17879 20.04 8.95712 20.25 9.73546 20.25C11.0826 20.25 12.3249 19.62 13.1631 18.6L18.4768 21.675C18.1774 22.395 18.0128 23.175 18.0128 24C18.0128 24.825 18.1774 25.605 18.4768 26.325L13.1631 29.4C12.3249 28.38 11.0826 27.75 9.73546 27.75C8.95712 27.75 8.17879 27.96 7.49026 28.35C6.45746 28.95 5.70906 29.925 5.4097 31.08C5.09537 32.25 5.24505 33.465 5.85874 34.5C6.65205 35.895 8.14885 36.75 9.75043 36.75C10.5288 36.75 11.3071 36.54 11.9807 36.15C13.0284 35.55 13.7619 34.575 14.0762 33.42C14.3157 32.505 14.2708 31.56 13.9415 30.69L19.2551 27.615C20.1981 28.86 21.6201 29.715 23.2516 29.925V36.075C21.1261 36.435 19.5096 38.28 19.5096 40.5C19.5096 42.975 21.5303 45 24 45C26.4697 45 28.4904 42.975 28.4904 40.5C28.4904 38.28 26.8739 36.435 24.7484 36.075V29.925C26.3799 29.715 27.8019 28.86 28.7449 27.615L34.0585 30.69C33.7292 31.56 33.6843 32.505 33.9238 33.42C34.2381 34.575 34.9716 35.55 36.0193 36.15C36.6929 36.54 37.4712 36.75 38.2496 36.75C39.8512 36.75 41.348 35.895 42.1413 34.5C42.755 33.465 42.9046 32.25 42.5903 31.08C42.2909 29.925 41.5425 28.95 40.5097 28.35ZM36.7677 13.155C37.2317 12.885 37.7556 12.75 38.2496 12.75C39.2973 12.75 40.3002 13.29 40.854 14.25C41.6772 15.69 41.1833 17.52 39.7613 18.345C39.2824 18.615 38.7735 18.75 38.2645 18.75C37.2317 18.75 36.2139 18.21 35.6601 17.25C34.8369 15.81 35.3308 13.98 36.7677 13.155ZM12.3399 17.25C11.7861 18.21 10.7683 18.75 9.73546 18.75C9.22655 18.75 8.71764 18.615 8.23866 18.345C6.81669 17.52 6.32275 15.69 7.14599 14.25C7.69981 13.29 8.70267 12.75 9.75043 12.75C10.2444 12.75 10.7683 12.885 11.2323 13.155C12.6692 13.98 13.1631 15.81 12.3399 17.25ZM11.2323 34.845C10.7683 35.115 10.2444 35.25 9.75043 35.25C8.70267 35.25 7.69981 34.71 7.14599 33.75C6.32275 32.31 6.81669 30.48 8.23866 29.655C8.71764 29.385 9.22655 29.25 9.73546 29.25C10.7683 29.25 11.7861 29.79 12.3399 30.75C13.1631 32.19 12.6692 34.02 11.2323 34.845ZM21.0064 7.5C21.0064 5.85 22.3535 4.5 24 4.5C25.6465 4.5 26.9936 5.85 26.9936 7.5C26.9936 9.15 25.6465 10.5 24 10.5C22.3535 10.5 21.0064 9.15 21.0064 7.5ZM26.9936 40.5C26.9936 42.15 25.6465 43.5 24 43.5C22.3535 43.5 21.0064 42.15 21.0064 40.5C21.0064 38.85 22.3535 37.5 24 37.5C25.6465 37.5 26.9936 38.85 26.9936 40.5ZM24 28.5C21.5153 28.5 19.5096 26.49 19.5096 24C19.5096 21.51 21.5153 19.5 24 19.5C26.4847 19.5 28.4904 21.51 28.4904 24C28.4904 26.49 26.4847 28.5 24 28.5ZM40.854 33.75C40.3002 34.71 39.2973 35.25 38.2496 35.25C37.7556 35.25 37.2317 35.115 36.7677 34.845C35.3308 34.02 34.8369 32.19 35.6601 30.75C36.2139 29.79 37.2317 29.25 38.2645 29.25C38.7735 29.25 39.2824 29.385 39.7613 29.655C41.1833 30.48 41.6772 32.31 40.854 33.75Z" fill="#003B71"/>
</svg>
