<svg id="megamenu-icon-sign-out" width="24" height="24" viewBox="0 0 24 24" fill="currentColor" xmlns="http://www.w3.org/2000/svg">
<path fill-rule="evenodd" clip-rule="evenodd" d="M14.7929 7.29289C15.1834 6.90237 15.8166 6.90237 16.2071 7.29289L20.2071 11.2929C20.5976 11.6834 20.5976 12.3166 20.2071 12.7071L16.2071 16.7071C15.8166 17.0976 15.1834 17.0976 14.7929 16.7071C14.4024 16.3166 14.4024 15.6834 14.7929 15.2929L17.0858 13H7.5C6.94772 13 6.5 12.5523 6.5 12C6.5 11.4477 6.94772 11 7.5 11H17.0858L14.7929 8.70711C14.4024 8.31658 14.4024 7.68342 14.7929 7.29289Z" fill="white"/>
<path fill-rule="evenodd" clip-rule="evenodd" d="M4.5 5C5.05228 5 5.5 5.44772 5.5 6L5.5 18C5.5 18.5523 5.05229 19 4.5 19C3.94772 19 3.5 18.5523 3.5 18L3.5 6C3.5 5.44772 3.94772 5 4.5 5Z" fill="white"/>
</svg>
