<svg id="pincross" width="24" height="24" viewBox="0 0 24 24" fill="currentColor" xmlns="http://www.w3.org/2000/svg">
<path fill-rule="evenodd" clip-rule="evenodd" d="M5 9C5 5.13 8.13 2 12 2C15.87 2 19 5.13 19 9V9.00002C19 9.33001 19 9.67001 18.95 10C18.91 10.31 18.85 10.63 18.76 10.94C18.4 12.24 17.87 13.4 17.35 14.45C16.6069 15.9652 15.8637 17.1638 14.8599 18.7828C14.8236 18.8413 14.787 18.9003 14.75 18.96L14.37 19.57C14.16 19.9 13.94 20.24 13.71 20.58L13.32 21.19C13.18 21.39 12.75 22 12.01 22H11.99C11.25 22 10.82 21.39 10.68 21.19L10.29 20.58C10.06 20.24 9.84 19.9 9.63 19.57L9.25 18.96C9.21303 18.9004 9.17641 18.8413 9.14013 18.7828C8.13629 17.1638 7.39314 15.9652 6.65 14.45C6.13 13.4 5.6 12.24 5.24 10.94C5.15 10.63 5.09 10.31 5.05 10C5 9.67 5 9.33 5 9ZM7 9C7 11.76 9.24 14 12 14C14.76 14 17 11.76 17 9C17 6.24 14.76 4 12 4C9.24 4 7 6.24 7 9ZM13 10H15V8H13V6H11V8H9V10H11V12H13V10Z" fill="#003B71"/>
</svg>
