<svg width="24" height="24" viewBox="0 0 24 24" fill="none" xmlns="http://www.w3.org/2000/svg">
<path d="M8.65872 7.82081L2.88396 8.50185C2.03699 8.60174 1.69605 9.63735 2.32091 10.2121L6.5937 14.1424L5.46072 19.814C5.29487 20.6442 6.18854 21.2851 6.93363 20.8702L12 18.0494L17.0664 20.8702C17.8115 21.2851 18.7051 20.6442 18.5393 19.814L17.4063 14.1424L21.6791 10.2121C22.3039 9.63735 21.963 8.60174 21.116 8.50185L15.3413 7.82081L12.9099 2.57762C12.5527 1.80746 11.4473 1.80746 11.0901 2.57762L8.65872 7.82081Z" fill="#E9EBEE"/>
<path d="M8.65872 7.82081L2.88396 8.50185C2.03699 8.60174 1.69605 9.63735 2.32091 10.2121L6.5937 14.1424L5.46072 19.814C5.29487 20.6442 6.18854 21.2851 6.93363 20.8702L12 18.0494V2C11.6344 2 11.2687 2.19254 11.0901 2.57762L8.65872 7.82081Z" fill="#FEC941"/>
</svg>
