<svg id="mhs-logo-white" width="156" height="55" viewBox="0 0 156 55" fill="currentColor" xmlns="http://www.w3.org/2000/svg">
<path d="M0 4.89398H5.94305L12.5329 15.4866L19.1125 4.89398H25.0556V29.9444H19.581V13.587L12.5329 24.2917H12.3852L5.40833 13.694V29.9444H0V4.89398Z" fill="white"/>
<path d="M39.3046 4.71576H44.3972L55.1221 29.9445H49.3573L47.0708 24.3426H36.4731L34.1814 29.9445H28.5745L39.3046 4.71576ZM45.0999 19.4843L41.7694 11.3616L38.4439 19.5097L45.0999 19.4843Z" fill="white"/>
<path d="M57.3374 19.2093V4.89398H62.8527V19.0667C62.8527 23.1407 64.8897 25.2542 68.2559 25.2542C71.6221 25.2542 73.6592 23.2171 73.6592 19.2449V4.89398H79.1744V19.0259C79.1744 26.6139 74.917 30.3417 68.1846 30.3417C61.4522 30.3417 57.3374 26.5833 57.3374 19.2093" fill="white"/>
<path d="M90.2001 4.88892H84.6848V29.9445H90.2001V4.88892Z" fill="white"/>
<path d="M0 34.2222H3.53426V40.5829H10.0579V34.2222H13.5921V50.2945H10.0579V43.8421H3.53426V50.2945H0V34.2222Z" fill="white"/>
<path d="M17.218 34.2222H29.3384V37.3695H20.7268V40.6287H28.3046V43.7759H20.7268V47.1472H29.4555V50.2945H17.218V34.2222Z" fill="white"/>
<path d="M37.8788 34.1204H41.1381L48.0283 50.2944H44.3311L42.8594 46.6889H36.0658L34.5992 50.2944H30.9885L37.8788 34.1204ZM41.6015 43.5773L39.4626 38.3676L37.3288 43.5773H41.6015Z" fill="white"/>
<path d="M50.2742 34.2222H53.8135V47.081H61.8242V50.2945H50.2742V34.2222Z" fill="white"/>
<path d="M65.7046 37.4815H60.8157V34.2222H74.1277V37.4815H69.2388V50.2945H65.7046V37.4815Z" fill="white"/>
<path d="M76.6079 34.2222H80.1422V40.5829H86.6607V34.2222H90.2V50.2945H86.6607V43.8421H80.1422V50.2945H76.6079V34.2222Z" fill="white"/>
</svg>
